# xmcd
#
# Track frame offsets: 
#        150
#        14435
#        28749
#        45370
#        61933
#        78926
#        95898
#        111881
#        125297
#        136697
#        151884
#        170807
#        187423
#        206773
#
# Disc length: 2953 seconds
#
# Revision: 0
# Processed by: cddbd v1.5.2PL0 Copyright (c) Steve Scherf et al.
# Submitted via: ExactAudioCopy v0.99pb4
#
DISCID=bf0b870e
DTITLE=THETHYRDAY - The Perfection Xperiment Pt. 2
DYEAR=2004
DGENRE=Hip-Hop
TTITLE0=PX2 Intro
TTITLE1=Fantastic
TTITLE2=Getaway (feat Courtney)
TTITLE3=Love Music
TTITLE4=Superstars
TTITLE5=Warning Shot
TTITLE6=The Rutherford Affair
TTITLE7=Fan
TTITLE8=Good Music
TTITLE9=Cycle
TTITLE10=Memories
TTITLE11=Revenge
TTITLE12=United
TTITLE13=Journey
EXTD=
EXTT0=
EXTT1=
EXTT2=
EXTT3=
EXTT4=
EXTT5=
EXTT6=
EXTT7=
EXTT8=
EXTT9=
EXTT10=
EXTT11=
EXTT12=
EXTT13=
PLAYORDER=
